<svg xmlns="http://www.w3.org/2000/svg" width="1600" height="1100" viewBox="0 0 1600 1100">
<rect width="1600" height="1100" fill="white"/>
<text x="60" y="73.28" font-family="Arial, sans-serif" font-size="34" fill="#173047">02  /  Robot receiver and motor driver</text>
<text x="60" y="112.48" font-family="Arial, sans-serif" font-size="19" fill="#526779">RF DATA on D11 · L293D physical DIP pin numbers shown beside each signal</text>
<polyline points="60,140 1540,140" fill="none" stroke="#d7e1e8" stroke-width="2"/>
<rect x="60" y="215" width="280" height="220" rx="12" fill="#eef8ef" stroke="#173047" stroke-width="2"/>
<text x="80" y="252.16" font-family="Arial, sans-serif" font-size="23" fill="#173047">ASK/OOK RF · RX</text>
<rect x="510" y="215" width="280" height="660" rx="12" fill="#edf5fa" stroke="#173047" stroke-width="2"/>
<text x="530" y="252.16" font-family="Arial, sans-serif" font-size="23" fill="#173047">Arduino Uno · RX</text>
<rect x="1000" y="215" width="290" height="660" rx="12" fill="#f1edf8" stroke="#173047" stroke-width="2"/>
<text x="1020" y="251.24" font-family="Arial, sans-serif" font-size="22" fill="#173047">L293D · dual bridge</text>
<polyline points="340,310 360,310" fill="none" stroke="#21835b" stroke-width="3"/>
<text x="190" y="314.56" font-family="Arial, sans-serif" font-size="18" fill="#173047">DATA</text>
<polyline points="510,310 490,310" fill="none" stroke="#21835b" stroke-width="3"/>
<text x="524" y="314.56" font-family="Arial, sans-serif" font-size="18" fill="#173047">D11</text>
<polyline points="360,310 490,310" fill="none" stroke="#21835b" stroke-width="3"/>
<text x="80" y="371.56" font-family="Arial, sans-serif" font-size="18" fill="#bd423d">VCC → V_RF_RX</text>
<text x="80" y="407.56" font-family="Arial, sans-serif" font-size="18" fill="#173047">GND → GND_RX</text>
<polyline points="790,410 810,410" fill="none" stroke="#21835b" stroke-width="3"/>
<text x="640" y="414.56" font-family="Arial, sans-serif" font-size="18" fill="#173047">D5</text>
<polyline points="1000,410 980,410" fill="none" stroke="#21835b" stroke-width="3"/>
<text x="1014" y="414.56" font-family="Arial, sans-serif" font-size="18" fill="#173047">1 · EN LEFT</text>
<polyline points="810,410 980,410" fill="none" stroke="#21835b" stroke-width="3"/>
<polyline points="790,470 810,470" fill="none" stroke="#21835b" stroke-width="3"/>
<text x="640" y="474.56" font-family="Arial, sans-serif" font-size="18" fill="#173047">D2</text>
<polyline points="1000,470 980,470" fill="none" stroke="#21835b" stroke-width="3"/>
<text x="1014" y="474.56" font-family="Arial, sans-serif" font-size="18" fill="#173047">2 · IN1</text>
<polyline points="810,470 980,470" fill="none" stroke="#21835b" stroke-width="3"/>
<polyline points="790,530 810,530" fill="none" stroke="#21835b" stroke-width="3"/>
<text x="640" y="534.56" font-family="Arial, sans-serif" font-size="18" fill="#173047">D3</text>
<polyline points="1000,530 980,530" fill="none" stroke="#21835b" stroke-width="3"/>
<text x="1014" y="534.56" font-family="Arial, sans-serif" font-size="18" fill="#173047">7 · IN2</text>
<polyline points="810,530 980,530" fill="none" stroke="#21835b" stroke-width="3"/>
<polyline points="790,620 810,620" fill="none" stroke="#21835b" stroke-width="3"/>
<text x="640" y="624.56" font-family="Arial, sans-serif" font-size="18" fill="#173047">D6</text>
<polyline points="1000,620 980,620" fill="none" stroke="#21835b" stroke-width="3"/>
<text x="1014" y="624.56" font-family="Arial, sans-serif" font-size="18" fill="#173047">9 · EN RIGHT</text>
<polyline points="810,620 980,620" fill="none" stroke="#21835b" stroke-width="3"/>
<polyline points="790,680 810,680" fill="none" stroke="#21835b" stroke-width="3"/>
<text x="640" y="684.56" font-family="Arial, sans-serif" font-size="18" fill="#173047">D4</text>
<polyline points="1000,680 980,680" fill="none" stroke="#21835b" stroke-width="3"/>
<text x="1014" y="684.56" font-family="Arial, sans-serif" font-size="18" fill="#173047">10 · IN3</text>
<polyline points="810,680 980,680" fill="none" stroke="#21835b" stroke-width="3"/>
<polyline points="790,740 810,740" fill="none" stroke="#21835b" stroke-width="3"/>
<text x="640" y="744.56" font-family="Arial, sans-serif" font-size="18" fill="#173047">D7</text>
<polyline points="1000,740 980,740" fill="none" stroke="#21835b" stroke-width="3"/>
<text x="1014" y="744.56" font-family="Arial, sans-serif" font-size="18" fill="#173047">15 · IN4</text>
<polyline points="810,740 980,740" fill="none" stroke="#21835b" stroke-width="3"/>
<text x="535" y="811.56" font-family="Arial, sans-serif" font-size="18" fill="#526779">D10, D12: reserved</text>
<text x="535" y="843.56" font-family="Arial, sans-serif" font-size="18" fill="#237cba">USB power input</text>
<text x="1020" y="290.56" font-family="Arial, sans-serif" font-size="18" fill="#bd423d">16 · VCC1 → +5V_LOGIC</text>
<text x="1020" y="323.56" font-family="Arial, sans-serif" font-size="18" fill="#bd423d">8 · VCC2 → VMOTOR</text>
<text x="1020" y="824.56" font-family="Arial, sans-serif" font-size="18" fill="#173047">4, 5, 12, 13 → GND_RX</text>
<rect x="1410" y="365" width="145" height="160" rx="12" fill="#fff3c7" stroke="#173047" stroke-width="2"/>
<text x="1430" y="398.48" font-family="Arial, sans-serif" font-size="19" fill="#173047">M1 · LEFT</text>
<polyline points="1290,420 1310,420" fill="none" stroke="#237cba" stroke-width="3"/>
<text x="1140" y="424.56" font-family="Arial, sans-serif" font-size="18" fill="#173047">3 · OUT1</text>
<polyline points="1310,420 1410,420" fill="none" stroke="#237cba" stroke-width="3"/>
<polyline points="1290,480 1310,480" fill="none" stroke="#237cba" stroke-width="3"/>
<text x="1140" y="484.56" font-family="Arial, sans-serif" font-size="18" fill="#173047">6 · OUT2</text>
<polyline points="1310,480 1410,480" fill="none" stroke="#237cba" stroke-width="3"/>
<rect x="1410" y="585" width="145" height="160" rx="12" fill="#fff3c7" stroke="#173047" stroke-width="2"/>
<text x="1430" y="616.64" font-family="Arial, sans-serif" font-size="17" fill="#173047">M2 · RIGHT</text>
<polyline points="1290,640 1310,640" fill="none" stroke="#237cba" stroke-width="3"/>
<text x="1140" y="644.56" font-family="Arial, sans-serif" font-size="18" fill="#173047">11 · OUT3</text>
<polyline points="1310,640 1410,640" fill="none" stroke="#237cba" stroke-width="3"/>
<polyline points="1290,700 1310,700" fill="none" stroke="#237cba" stroke-width="3"/>
<text x="1140" y="704.56" font-family="Arial, sans-serif" font-size="18" fill="#173047">14 · OUT4</text>
<polyline points="1310,700 1410,700" fill="none" stroke="#237cba" stroke-width="3"/>
<rect x="60" y="485" width="345" height="380" rx="12" fill="#f7f9fb" stroke="#173047" stroke-width="2"/>
<text x="80" y="522.16" font-family="Arial, sans-serif" font-size="23" fill="#173047">Connection notes</text>
<text x="80" y="551.56" font-family="Arial, sans-serif" font-size="18" fill="#526779">V_RF_RX: module-rated supply</text>
<text x="80" y="594.56" font-family="Arial, sans-serif" font-size="18" fill="#526779">Match TX/RX radio frequency</text>
<text x="80" y="637.56" font-family="Arial, sans-serif" font-size="18" fill="#526779">Use Uno-compatible DATA level</text>
<text x="80" y="680.56" font-family="Arial, sans-serif" font-size="18" fill="#526779">All robot grounds: GND_RX</text>
<text x="80" y="723.56" font-family="Arial, sans-serif" font-size="18" fill="#526779">EN pins need 10 kΩ pulldowns</text>
<text x="80" y="766.56" font-family="Arial, sans-serif" font-size="18" fill="#526779">Power details: see sheet 03</text>
<text x="80" y="809.56" font-family="Arial, sans-serif" font-size="18" fill="#526779">Pin layout is symbolic</text>
<text x="60" y="943.4" font-family="Arial, sans-serif" font-size="20" fill="#173047">Motor terminals are provisional: verify forward rotation with wheels raised; swap leads with power off if needed.</text>
<text x="60" y="981.4" font-family="Arial, sans-serif" font-size="20" fill="#173047">Stop disables both bridges. Enable and supply components are drawn on sheet 03 using the same net names.</text>
<polyline points="60,1015 1540,1015" fill="none" stroke="#d7e1e8" stroke-width="2"/>
<text x="60" y="1056.56" font-family="Arial, sans-serif" font-size="18" fill="#526779">HAND GESTURE CONTROLLED ROBOT  /  Reconstructed design · hardware validation pending</text>
<text x="60" y="1084.72" font-family="Arial, sans-serif" font-size="16" fill="#526779">Functional connection diagram: pin positions are symbolic. Named nets connect only within their own setup.</text>
</svg>